<?xml version="1.0" standalone="no"?>
<!DOCTYPE svg PUBLIC "-//W3C//DTD SVG 20010904//EN"
 "http://www.w3.org/TR/2001/REC-SVG-20010904/DTD/svg10.dtd">
<svg version="1.0" xmlns="http://www.w3.org/2000/svg"
 width="212.000000pt" height="238.000000pt" viewBox="0 0 212.000000 238.000000"
 preserveAspectRatio="xMidYMid meet">

<g transform="translate(0.000000,238.000000) scale(0.100000,-0.100000)"
fill="#000000" stroke="none">
<path d="M1025 2113 c-33 -9 -74 -43 -90 -73 -23 -44 -21 -321 2 -356 23 -36
87 -74 123 -74 36 0 100 38 123 74 23 35 25 312 2 356 -27 53 -104 88 -160 73z
m107 -62 l33 -29 3 -128 c4 -153 -1 -184 -35 -218 -20 -21 -35 -26 -73 -26
-38 0 -53 5 -73 26 -34 34 -39 65 -35 218 l3 128 33 29 c24 22 42 29 72 29 30
0 48 -7 72 -29z"/>
<path d="M790 1710 c28 -98 114 -181 207 -200 l53 -11 0 -140 c0 -86 4 -139
10 -139 6 0 10 53 10 139 l0 140 55 11 c94 19 177 101 206 202 6 24 5 28 -12
28 -11 0 -19 -7 -19 -17 0 -23 -48 -102 -79 -129 -32 -29 -121 -64 -161 -64
-40 0 -129 35 -161 64 -31 27 -79 106 -79 129 0 10 -8 17 -19 17 -17 0 -18 -4
-11 -30z"/>
<path d="M1050 820 c0 -193 4 -300 10 -300 6 0 10 107 10 300 0 193 -4 300
-10 300 -6 0 -10 -107 -10 -300z"/>
<path d="M990 825 c0 -220 2 -255 15 -255 13 0 15 35 15 255 0 220 -2 255 -15
255 -13 0 -15 -35 -15 -255z"/>
<path d="M1100 825 c0 -220 2 -255 15 -255 13 0 15 35 15 255 0 220 -2 255
-15 255 -13 0 -15 -35 -15 -255z"/>
<path d="M730 825 c0 -158 2 -185 15 -185 13 0 15 27 15 185 0 158 -2 185 -15
185 -13 0 -15 -27 -15 -185z"/>
<path d="M1360 825 c0 -158 2 -185 15 -185 13 0 15 27 15 185 0 158 -2 185
-15 185 -13 0 -15 -27 -15 -185z"/>
<path d="M780 825 c0 -140 2 -165 15 -165 13 0 15 25 15 165 0 140 -2 165 -15
165 -13 0 -15 -25 -15 -165z"/>
<path d="M940 819 c0 -132 3 -170 13 -167 9 4 13 49 15 171 2 144 0 167 -13
167 -13 0 -15 -24 -15 -171z"/>
<path d="M1152 823 c2 -122 6 -167 16 -171 9 -3 12 35 12 167 0 147 -2 171
-15 171 -13 0 -15 -23 -13 -167z"/>
<path d="M1310 825 c0 -140 2 -165 15 -165 13 0 15 25 15 165 0 140 -2 165
-15 165 -13 0 -15 -25 -15 -165z"/>
<path d="M359 953 c0 -5 -1 -66 -1 -138 -1 -114 1 -130 15 -133 15 -3 17 11
17 137 0 119 -2 141 -15 141 -8 0 -15 -3 -16 -7z"/>
<path d="M1730 819 c0 -128 2 -140 18 -137 15 3 17 18 18 141 1 128 0 137 -17
137 -18 0 -19 -10 -19 -141z"/>
<path d="M410 825 c0 -98 1 -105 20 -105 19 0 20 7 20 105 0 98 -1 105 -20
105 -19 0 -20 -7 -20 -105z"/>
<path d="M1671 825 c-1 -99 0 -105 19 -105 19 0 20 6 20 105 0 97 -2 105 -19
105 -18 0 -19 -9 -20 -105z"/>
<path d="M310 825 c0 -69 3 -85 15 -85 12 0 15 16 15 85 0 69 -3 85 -15 85
-12 0 -15 -16 -15 -85z"/>
<path d="M1780 825 c0 -69 3 -85 15 -85 12 0 15 16 15 85 0 69 -3 85 -15 85
-12 0 -15 -16 -15 -85z"/>
<path d="M460 819 c0 -62 2 -70 18 -67 14 3 18 16 20 71 3 62 1 67 -18 67 -18
0 -20 -6 -20 -71z"/>
<path d="M832 823 c2 -53 6 -68 18 -68 12 0 16 15 18 68 3 62 1 67 -18 67 -19
0 -21 -5 -18 -67z"/>
<path d="M1252 823 c2 -53 6 -68 18 -68 12 0 16 15 18 68 3 62 1 67 -18 67
-19 0 -21 -5 -18 -67z"/>
<path d="M1624 876 c-3 -7 -4 -38 -2 -67 2 -42 7 -55 21 -57 15 -3 17 5 17 67
0 57 -3 71 -15 71 -9 0 -18 -6 -21 -14z"/>
<path d="M250 825 c0 -38 3 -45 20 -45 17 0 20 7 20 45 0 38 -3 45 -20 45 -17
0 -20 -7 -20 -45z"/>
<path d="M570 825 c0 -33 4 -45 15 -45 11 0 15 12 15 45 0 33 -4 45 -15 45
-11 0 -15 -12 -15 -45z"/>
<path d="M887 863 c-4 -3 -7 -24 -7 -45 0 -31 3 -38 20 -38 17 0 20 7 20 45 0
43 -14 58 -33 38z"/>
<path d="M1200 826 c0 -40 3 -46 21 -46 18 0 20 5 17 42 -2 31 -8 44 -20 46
-15 3 -18 -4 -18 -42z"/>
<path d="M1520 825 c0 -33 4 -45 15 -45 11 0 15 12 15 45 0 33 -4 45 -15 45
-11 0 -15 -12 -15 -45z"/>
<path d="M1830 825 c0 -38 3 -45 20 -45 17 0 20 7 20 45 0 38 -3 45 -20 45
-17 0 -20 -7 -20 -45z"/>
<path d="M200 825 c0 -16 6 -25 15 -25 9 0 15 9 15 25 0 16 -6 25 -15 25 -9 0
-15 -9 -15 -25z"/>
<path d="M510 825 c0 -18 5 -25 20 -25 15 0 20 7 20 25 0 18 -5 25 -20 25 -15
0 -20 -7 -20 -25z"/>
<path d="M620 825 c0 -16 6 -25 15 -25 9 0 15 9 15 25 0 16 -6 25 -15 25 -9 0
-15 -9 -15 -25z"/>
<path d="M680 825 c0 -16 6 -25 15 -25 9 0 15 9 15 25 0 16 -6 25 -15 25 -9 0
-15 -9 -15 -25z"/>
<path d="M1410 825 c0 -16 6 -25 15 -25 9 0 15 9 15 25 0 16 -6 25 -15 25 -9
0 -15 -9 -15 -25z"/>
<path d="M1470 825 c0 -16 6 -25 15 -25 9 0 15 9 15 25 0 16 -6 25 -15 25 -9
0 -15 -9 -15 -25z"/>
<path d="M1570 825 c0 -18 5 -25 20 -25 15 0 20 7 20 25 0 18 -5 25 -20 25
-15 0 -20 -7 -20 -25z"/>
<path d="M1890 825 c0 -16 6 -25 15 -25 9 0 15 9 15 25 0 16 -6 25 -15 25 -9
0 -15 -9 -15 -25z"/>
<path d="M501 481 c-7 -5 -11 -13 -8 -18 4 -6 2 -25 -2 -44 -19 -73 -21 -89
-12 -89 5 0 11 8 13 18 3 13 8 9 21 -16 28 -52 79 -66 118 -31 l24 20 -27 -17
c-49 -29 -96 -1 -111 66 -5 20 -1 28 16 35 15 7 22 19 22 39 0 16 -5 31 -10
33 -6 2 -10 -11 -10 -29 0 -18 -6 -33 -14 -36 -11 -4 -13 4 -7 37 3 22 5 41 4
41 -2 0 -9 -4 -17 -9z"/>
<path d="M767 473 c-4 -3 -7 -17 -7 -30 0 -16 -8 -27 -24 -33 -23 -8 -42 -52
-31 -70 4 -6 16 -10 29 -10 19 0 23 8 34 71 12 71 12 86 -1 72z m-22 -95 c-10
-31 -25 -47 -25 -26 0 24 11 48 22 48 5 0 6 -10 3 -22z"/>
<path d="M1427 454 c-8 -8 1 -24 14 -24 5 0 9 7 9 15 0 15 -12 20 -23 9z"/>
<path d="M571 384 c-30 -38 -27 -52 12 -51 30 1 32 3 32 36 0 44 -17 50 -44
15z m17 -14 c-7 -10 -14 -17 -17 -15 -4 4 18 35 25 35 2 0 -1 -9 -8 -20z"/>
<path d="M635 373 c-8 -46 0 -52 20 -14 19 39 23 39 17 1 -3 -18 0 -30 7 -30
6 0 11 17 11 39 0 34 -3 39 -24 39 -20 0 -25 -7 -31 -35z"/>
<path d="M792 398 c-6 -6 -12 -25 -12 -40 0 -49 47 -29 52 22 3 27 -20 38 -40
18z m17 -40 c-7 -13 -14 -18 -16 -11 -3 7 1 22 8 35 7 13 14 18 16 11 3 -7 -1
-22 -8 -35z"/>
<path d="M854 383 c-3 -16 -7 -34 -10 -40 -8 -29 17 -10 30 22 17 40 31 48 16
9 -12 -32 -13 -44 -1 -44 5 0 12 13 16 30 4 16 11 33 17 36 9 6 6 -12 -9 -53
-3 -7 -1 -13 5 -13 5 0 13 11 16 24 3 13 9 31 12 40 5 13 -2 16 -40 16 -42 0
-46 -2 -52 -27z"/>
<path d="M1036 379 c-3 -17 -3 -35 0 -40 9 -15 56 -10 76 8 10 9 18 11 18 5 0
-6 -6 -13 -12 -15 -8 -3 -6 -6 5 -6 26 -1 33 27 11 44 -11 8 -14 14 -6 15 6 0
12 5 12 10 0 6 -22 10 -49 10 -46 0 -49 -1 -55 -31z"/>
<path d="M1177 404 c-4 -4 -7 -23 -7 -41 0 -53 37 -83 100 -83 42 0 56 5 78
27 19 19 35 26 55 24 15 -1 35 3 43 10 16 13 30 6 19 -10 -3 -6 -26 -11 -51
-11 -32 0 -44 -4 -44 -15 0 -23 92 -21 113 3 23 25 21 47 -5 65 -19 13 -20 16
-5 16 9 1 17 6 17 11 0 6 -25 10 -55 10 -49 0 -55 -2 -55 -21 0 -15 -4 -19
-16 -15 -9 3 -23 6 -32 7 -11 0 -12 2 -4 6 31 12 7 24 -45 21 l-58 -3 0 -35
c0 -43 28 -50 33 -7 4 34 22 36 22 3 0 -33 20 -44 37 -21 11 17 13 17 13 2 0
-24 -45 -50 -74 -43 -38 9 -58 35 -54 69 3 29 -10 45 -25 31z"/>
<path d="M1526 379 c-3 -17 -3 -35 0 -40 9 -15 56 -10 77 9 19 16 19 16 16 -3
-3 -16 -13 -21 -52 -23 -54 -4 -73 -26 -42 -48 26 -19 58 -17 87 5 13 11 40
21 59 23 34 3 34 3 34 53 0 38 -4 50 -15 50 -10 0 -16 -13 -18 -42 -2 -24 -8
-43 -14 -43 -5 0 -8 7 -4 15 9 23 -4 45 -28 46 -16 1 -17 2 -3 6 36 9 15 23
-37 23 -52 0 -54 -1 -60 -31z m51 -85 c-3 -3 -12 -4 -19 -1 -8 3 -5 6 6 6 11
1 17 -2 13 -5z"/>
</g>
</svg>
