<?xml version="1.0" standalone="no"?>
<!DOCTYPE svg PUBLIC "-//W3C//DTD SVG 20010904//EN"
 "http://www.w3.org/TR/2001/REC-SVG-20010904/DTD/svg10.dtd">
<svg version="1.0" xmlns="http://www.w3.org/2000/svg"
 width="366.000000pt" height="138.000000pt" viewBox="0 0 366.000000 138.000000"
 preserveAspectRatio="xMidYMid meet">

<g transform="translate(0.000000,138.000000) scale(0.100000,-0.100000)"
fill="#000000" stroke="none">
<path d="M1750 1189 c-247 -31 -429 -244 -430 -500 0 -256 178 -460 437 -501
144 -22 309 35 418 146 156 160 188 398 80 607 -24 46 -118 143 -174 178 -91
58 -217 85 -331 70z m136 -85 c37 -18 79 -76 70 -99 -4 -10 -28 -15 -88 -18
l-83 -3 88 -2 c80 -2 87 -4 87 -22 0 -18 -7 -20 -85 -20 -50 0 -85 -4 -85 -10
0 -6 35 -10 85 -10 69 0 85 -3 85 -15 0 -12 -16 -15 -86 -15 -64 0 -85 -3 -82
-12 3 -9 32 -14 86 -16 64 -2 82 -6 82 -17 0 -12 -17 -15 -85 -15 -50 0 -85
-4 -85 -10 0 -6 35 -10 85 -10 l85 0 2 -97 c1 -74 3 -83 5 -35 4 58 5 62 28
62 24 0 25 -2 25 -79 0 -74 -2 -82 -32 -123 -21 -27 -52 -52 -85 -68 l-53 -25
0 -62 0 -63 55 0 c52 0 55 -1 55 -25 l0 -25 -135 0 -135 0 0 25 c0 23 3 25 50
25 l50 0 0 63 0 62 -54 28 c-81 43 -110 90 -115 189 l-3 78 31 0 31 0 0 -60
c0 -34 7 -74 15 -90 16 -30 60 -70 79 -70 6 0 -3 9 -21 20 -58 35 -63 57 -63
282 0 186 2 206 20 236 35 57 111 77 176 46z"/>
<path d="M1942 585 c-6 -14 -26 -34 -44 -45 -18 -11 -28 -20 -22 -20 26 0 95
73 81 86 -2 2 -9 -7 -15 -21z"/>
<path d="M1808 513 c12 -2 30 -2 40 0 9 3 -1 5 -23 4 -22 0 -30 -2 -17 -4z"/>
<path d="M2790 1112 c-19 -9 -36 -17 -38 -18 -1 -1 11 -41 27 -90 70 -209 68
-412 -5 -661 -5 -17 0 -25 26 -38 17 -9 37 -14 44 -12 14 6 49 120 66 211 15
86 12 280 -5 379 -14 78 -58 223 -74 238 -3 4 -22 0 -41 -9z"/>
<path d="M797 1063 c-20 -52 -45 -155 -57 -238 -18 -129 -10 -257 25 -413 22
-96 25 -99 73 -78 l39 18 -18 65 c-52 186 -44 410 20 596 l20 57 -36 15 c-48
20 -49 20 -66 -22z"/>
<path d="M2600 1033 c-19 -8 -36 -16 -37 -17 -1 -1 9 -36 22 -79 49 -154 53
-332 10 -473 -8 -27 -15 -52 -15 -57 0 -14 70 -41 80 -31 16 16 48 158 56 246
4 49 2 120 -5 172 -12 86 -54 241 -69 249 -4 2 -23 -2 -42 -10z"/>
<path d="M987 992 c-52 -130 -66 -349 -33 -497 10 -44 22 -84 26 -89 11 -11
80 15 80 30 0 7 -7 43 -15 79 -25 105 -21 260 10 379 13 55 24 101 22 102 -1
1 -19 9 -39 17 l-36 15 -15 -36z"/>
<path d="M2414 956 l-32 -14 19 -56 c44 -130 45 -252 3 -398 -3 -12 5 -19 32
-28 44 -15 46 -12 65 74 27 119 15 289 -28 399 -17 42 -16 41 -59 23z"/>
<path d="M1166 893 c-33 -105 -37 -317 -7 -396 10 -26 11 -26 43 -12 26 10 32
19 30 37 -1 13 -5 73 -8 133 -6 104 3 175 31 248 6 13 -1 21 -29 32 -19 8 -37
15 -39 15 -2 0 -11 -26 -21 -57z"/>
</g>
</svg>
